<svg xmlns="http://www.w3.org/2000/svg" width="1180" height="180" viewBox="0 0 1180 180" role="img" aria-labelledby="catena-logo-title">
  <title id="catena-logo-title">CATENA</title>
  <path id="catena-wordmark" d="m 222.23981,129.68 c 17.08,0 31.22,-6.16 40.46,-17.5 l -14.56,-13.44 c -6.58,7.7 -14.84,11.62 -24.64,11.62 -18.34,0 -31.36,-12.88 -31.36,-31.36 0,-18.48 13.02,-31.36 31.36,-31.36 9.8,0 18.06,3.92 24.64,11.48 l 14.56,-13.44 c -9.24,-11.2 -23.38,-17.36 -40.32,-17.36 -30.52,0 -53.2,21.14 -53.2,50.68 0,29.54 22.68,50.68 53.06,50.68 z M 311.85995,128 h 23.24 l 8.68,-21 h 45.5 l 8.68,21 h 23.8 l -43.82,-98 h -22.4 z m 39.06,-38.22 15.68,-37.38 15.54,37.38 z M 497.38007,128 h 22.68 V 48.48 h 31.36 V 30 h -85.4 v 18.48 h 31.36 z m 116.21999,0 h 75.88 v -18.2 h -53.34 V 87.12 h 45.5 V 69.48 h -45.5 V 48.2 h 51.52 V 30 h -74.06 z M 757.54,128 h 22.4 V 68.36 L 828.8,128 h 18.62 V 30 h -22.4 V 89.64 L 776.3,30 h -18.76 z m 150.24012,0 h 23.24 l 8.68,-21 h 45.5 l 8.68,21 h 23.79998 L 973.86012,30 h -22.4 z m 39.06,-38.22 15.68,-37.38 15.54,37.38 z" fill="#ffffff"/>
</svg>
